<svg width="28" height="21" viewBox="0 0 28 21" fill="none" xmlns="http://www.w3.org/2000/svg">
<path d="M13.5 17C16.5377 17 19 14.5377 19 11.5C19 8.46235 16.5377 6 13.5 6C10.4623 6 8 8.46235 8 11.5C8 14.5377 10.4623 17 13.5 17Z" stroke="#F4BE50" stroke-linecap="round" stroke-linejoin="round"/>
<circle cx="22" cy="7" r="1" fill="#F4BE50"/>
<path d="M1.25 16.3V7.11666C1.25 5.76321 1.25 5.08647 1.55882 4.56952C1.83045 4.11479 2.26389 3.74509 2.79703 3.5134C3.40311 3.24999 4.19652 3.24999 5.78333 3.24999H7.27741C7.45157 3.24999 7.53865 3.25 7.61899 3.24214C8.03818 3.20119 8.41415 3.003 8.64456 2.70152C8.68872 2.64374 8.72768 2.57729 8.80555 2.44444C8.96133 2.17871 9.03922 2.04584 9.12755 1.93028C9.58836 1.32732 10.3403 0.930937 11.1787 0.849024C11.3394 0.833328 11.5135 0.833328 11.8618 0.833328H16.1382C16.4865 0.833328 16.6606 0.833328 16.8213 0.849024C17.6597 0.930937 18.4116 1.32732 18.8725 1.93028C18.9607 2.04583 19.0387 2.17875 19.1945 2.44444C19.2723 2.5773 19.3112 2.64374 19.3554 2.70152C19.5859 3.003 19.9618 3.20119 20.3809 3.24214C20.4614 3.25 20.5484 3.24999 20.7226 3.24999H22.2167C23.8035 3.24999 24.597 3.24999 25.203 3.5134C25.7361 3.74509 26.1696 4.11479 26.4412 4.56952C26.75 5.08647 26.75 5.76321 26.75 7.11666V16.3C26.75 17.6534 26.75 18.3302 26.4412 18.8472C26.1696 19.3019 25.7361 19.6716 25.203 19.9032C24.597 20.1667 23.8035 20.1667 22.2167 20.1667H5.78333C4.19652 20.1667 3.40311 20.1667 2.79703 19.9032C2.26389 19.6716 1.83045 19.3019 1.55882 18.8472C1.25 18.3302 1.25 17.6534 1.25 16.3Z" stroke="#F4BE50" stroke-linecap="round" stroke-linejoin="round"/>
</svg>
