<svg width="22" height="18" viewBox="0 0 22 18" fill="none" xmlns="http://www.w3.org/2000/svg">
<path d="M20.75 4.66666L16.8925 6.80974C14.7418 8.00452 13.6665 8.60198 12.5277 8.8362C11.5198 9.04344 10.4802 9.04344 9.47228 8.8362C8.33353 8.60198 7.2582 8.00452 5.10753 6.80974L1.25 4.66666M4.71667 16.5833H17.2833C18.4968 16.5833 19.1036 16.5833 19.567 16.3472C19.9747 16.1395 20.3062 15.808 20.5138 15.4003C20.75 14.9369 20.75 14.3301 20.75 13.1167V4.88333C20.75 3.66989 20.75 3.06316 20.5138 2.59969C20.3062 2.19199 19.9747 1.86054 19.567 1.65282C19.1036 1.41666 18.4968 1.41666 17.2833 1.41666H4.71667C3.50322 1.41666 2.89649 1.41666 2.43302 1.65282C2.02533 1.86054 1.69387 2.19199 1.48616 2.59969C1.25 3.06316 1.25 3.66988 1.25 4.88333V13.1167C1.25 14.3301 1.25 14.9369 1.48616 15.4003C1.69387 15.808 2.02533 16.1395 2.43302 16.3472C2.89649 16.5833 3.50321 16.5833 4.71667 16.5833Z" stroke="#B7B7B7" stroke-width="2" stroke-linecap="round" stroke-linejoin="round"/>
</svg>
