<svg width="24" height="24" viewBox="0 0 24 24" fill="none" xmlns="http://www.w3.org/2000/svg">
<path fill-rule="evenodd" clip-rule="evenodd" d="M12 18.5C15.5898 18.5 18.5 15.5898 18.5 12C18.5 8.41015 15.5898 5.5 12 5.5C8.41015 5.5 5.5 8.41015 5.5 12C5.5 15.5898 8.41015 18.5 12 18.5ZM12 16.3333C14.3932 16.3333 16.3333 14.3932 16.3333 12C16.3333 9.60677 14.3932 7.66667 12 7.66667C9.60677 7.66667 7.66667 9.60677 7.66667 12C7.66667 14.3932 9.60677 16.3333 12 16.3333Z" fill="#B7B7B7"/>
<path d="M18.5 4.41667C17.9017 4.41667 17.4167 4.9017 17.4167 5.50001C17.4167 6.09831 17.9017 6.58334 18.5 6.58334C19.0983 6.58334 19.5834 6.09831 19.5834 5.50001C19.5834 4.9017 19.0983 4.41667 18.5 4.41667Z" fill="#B7B7B7"/>
<path fill-rule="evenodd" clip-rule="evenodd" d="M0.79177 3.63239C0.083313 5.02282 0.083313 6.84299 0.083313 10.4833V13.5167C0.083313 17.157 0.083313 18.9772 0.79177 20.3676C1.41495 21.5906 2.40932 22.585 3.63238 23.2082C5.0228 23.9167 6.84298 23.9167 10.4833 23.9167H13.5166C17.157 23.9167 18.9772 23.9167 20.3675 23.2082C21.5906 22.585 22.585 21.5906 23.2081 20.3676C23.9166 18.9772 23.9166 17.157 23.9166 13.5167V10.4833C23.9166 6.84299 23.9166 5.02282 23.2081 3.63239C22.585 2.40933 21.5906 1.41496 20.3675 0.791785C18.9772 0.0833282 17.157 0.0833282 13.5166 0.0833282H10.4833C6.84298 0.0833282 5.0228 0.0833282 3.63238 0.791785C2.40932 1.41496 1.41495 2.40933 0.79177 3.63239ZM13.5166 2.24999H10.4833C8.62739 2.24999 7.36575 2.25168 6.39057 2.33135C5.44066 2.40896 4.95489 2.54963 4.61602 2.7223C3.80065 3.13775 3.13774 3.80067 2.72228 4.61604C2.54962 4.95491 2.40895 5.44067 2.33134 6.39058C2.25167 7.36577 2.24998 8.62741 2.24998 10.4833V13.5167C2.24998 15.3726 2.25167 16.6342 2.33134 17.6094C2.40895 18.5594 2.54962 19.0451 2.72228 19.384C3.13774 20.1993 3.80065 20.8622 4.61602 21.2777C4.95489 21.4503 5.44066 21.5911 6.39057 21.6686C7.36575 21.7483 8.62739 21.75 10.4833 21.75H13.5166C15.3726 21.75 16.6342 21.7483 17.6094 21.6686C18.5593 21.5911 19.0451 21.4503 19.384 21.2777C20.1993 20.8622 20.8622 20.1993 21.2776 19.384C21.4503 19.0451 21.5911 18.5594 21.6686 17.6094C21.7482 16.6342 21.75 15.3726 21.75 13.5167V10.4833C21.75 8.62741 21.7482 7.36577 21.6686 6.39058C21.5911 5.44067 21.4503 4.95491 21.2776 4.61604C20.8622 3.80067 20.1993 3.13775 19.384 2.7223C19.0451 2.54963 18.5593 2.40896 17.6094 2.33135C16.6342 2.25168 15.3726 2.24999 13.5166 2.24999Z" fill="#B7B7B7"/>
</svg>
