<svg width="16" height="16" viewBox="0 0 16 16" fill="none" xmlns="http://www.w3.org/2000/svg">
<path d="M14.5813 8.00001V14.0694C14.5816 14.1367 14.5687 14.2034 14.5431 14.2657C14.5175 14.328 14.4798 14.3846 14.4322 14.4322C14.3846 14.4798 14.328 14.5175 14.2657 14.5431C14.2035 14.5686 14.1367 14.5816 14.0694 14.5813H1.93064C1.86332 14.5816 1.79659 14.5686 1.73432 14.5431C1.67205 14.5175 1.61547 14.4798 1.56786 14.4322C1.52026 14.3846 1.48257 14.328 1.45697 14.2657C1.43138 14.2034 1.4184 14.1367 1.41877 14.0694V1.93063C1.4184 1.86331 1.43138 1.79658 1.45697 1.7343C1.48257 1.67203 1.52026 1.61545 1.56786 1.56785C1.61547 1.52024 1.67205 1.48255 1.73432 1.45696C1.79659 1.43137 1.86332 1.41838 1.93064 1.41875H8.00002" stroke="#3F89F5" stroke-width="1.5"/>
<path d="M10.34 1.41875H14.5812V5.80062" stroke="#3F89F5" stroke-width="1.5"/>
<path d="M4.43378 11.8587L14.3591 1.50594" stroke="#3F89F5" stroke-width="1.5"/>
</svg>
