<svg width="26" height="26" viewBox="0 0 26 26" fill="none" xmlns="http://www.w3.org/2000/svg">
<path d="M26 6.5V9.1C26 10.1343 25.5892 11.1263 24.8581 11.8577C24.1269 12.5891 23.1353 13 22.1012 13H15.6033C15.2586 13 14.9281 13.137 14.6844 13.3808C14.4406 13.6246 14.3037 13.9552 14.3037 14.3H15.6033C15.948 14.3 16.2785 14.437 16.5223 14.6808C16.766 14.9246 16.9029 15.2552 16.9029 15.6V24.7C16.9029 25.0448 16.766 25.3754 16.5223 25.6192C16.2785 25.863 15.948 26 15.6033 26H10.405C10.0603 26 9.72974 25.863 9.48602 25.6192C9.2423 25.3754 9.10538 25.0448 9.10538 24.7V15.6C9.10538 15.2552 9.2423 14.9246 9.48602 14.6808C9.72974 14.437 10.0603 14.3 10.405 14.3H11.7046C11.7046 13.2657 12.1153 12.2737 12.8465 11.5423C13.5776 10.8109 14.5693 10.4 15.6033 10.4H22.1012C22.4459 10.4 22.7765 10.263 23.0202 10.0192C23.2639 9.77544 23.4008 9.44478 23.4008 9.1V6.5C23.4008 6.15522 23.2639 5.82456 23.0202 5.58076C22.7765 5.33696 22.4459 5.2 22.1012 5.2H20.5625C20.2963 5.95883 19.8014 6.6164 19.146 7.08206C18.4905 7.54772 17.7068 7.79856 16.9029 7.8H3.90704C2.87302 7.8 1.88136 7.38911 1.1502 6.65772C0.41904 5.92632 0.00827907 4.93434 0.00827907 3.9C0.00827907 2.86566 0.41904 1.87368 1.1502 1.14228C1.88136 0.410892 2.87302 0 3.90704 0H16.9029C17.7068 0.00143864 18.4905 0.252276 19.146 0.71794C19.8014 1.1836 20.2963 1.84117 20.5625 2.6H22.1012C23.1353 2.6 24.1269 3.01089 24.8581 3.74228C25.5892 4.47368 26 5.46566 26 6.5ZM2.21758 18.2H2.99733C3.63933 18.137 4.23083 17.824 4.64416 17.3286C5.05749 16.8332 5.25951 16.195 5.20662 15.5519C5.21007 15.0032 5.06406 14.4639 4.78426 13.9919L2.60745 10.4L0.430645 13.9932C0.151073 14.4648 0.00506768 15.0036 0.00827907 15.5519C-0.0446088 16.195 0.157413 16.8332 0.570745 17.3286C0.984077 17.824 1.57557 18.137 2.21758 18.2Z" fill="white"/>
</svg>
