<svg width="46" height="16" viewBox="0 0 46 16" fill="none" xmlns="http://www.w3.org/2000/svg">
<path d="M0.896195 15.7674C0.0572701 15.3719 0 14.8761 0 8.00716C0 1.05014 0.0509835 0.636425 0.956417 0.235022C1.66555 -0.0783407 44.3345 -0.0783407 45.0436 0.235022C45.9491 0.636425 46 1.05014 46 8.00716C46 14.9638 45.949 15.3775 45.0436 15.7789C44.3656 16.0811 1.53491 16.0662 0.896195 15.7789V15.7674ZM42.7143 8.00716V3.21047H23H3.2857V8.00716V12.8035H23H42.7143V8.00716ZM4.92856 8.00716V4.80937H7.39285H9.85715V8.00716V11.2046H7.39285H4.92856V8.00716ZM11.5 8.00716V4.80937H13.9643H16.4286V8.00716V11.2046H13.9643H11.5V8.00716ZM18.0714 8.00716V4.80937H20.5357H23V8.00716V11.2046H20.5357H18.0714V8.00716ZM24.6429 8.00716V4.80937H27.1071H29.5714V8.00716V11.2046H27.1071H24.6429V8.00716Z" fill="white"/>
</svg>
